<?xml version="1.0" encoding="utf-8"?>
<svg xmlns="http://www.w3.org/2000/svg" viewBox="115.05 79.4 222.24 291.6">   <g transform="matrix(0.10000000149011612, 0, 0, -0.10000000149011612, 1.4210854715202004e-14, 512.0000000000001)" fill="#00ffbf" stroke="none">     <g>       <path d="M 2590 4325 C 2251.021 4343.279 1765.347 4107.91 1775.177 3697.633 C 1778.722 3549.675 1821 3485.618 1877 3420.618 C 1951 3333.618 2106 3279 2241 3300 C 2323 3312 2423.806 3405.653 2464.255 3468.014 C 2535.165 3577.338 2522.844 3868.526 2470.626 3765.329 C 2418.408 3662.132 1968.319 3519.777 2107.814 3539.776 C 2247.309 3559.775 2356.963 3557.47 2339.495 3515.278 C 2262.977 3330.455 2070.61 3388.895 2013.61 3443.895 C 1961.61 3492.895 1900.244 3526.303 1892.295 3654.539 C 1867.916 4047.822 2342.303 4145.272 2542.172 4119.25 C 3387.426 4009.202 3116.692 3127.61 3069.592 2990.263 C 2970.604 2701.605 2591.515 2230.452 2415.642 2016.311 C 2341.153 1925.614 2027.267 1626.343 2021.181 1638.784 C 1885.535 1916.083 1697.474 2066.136 1610.583 2166.394 C 1349.288 2467.885 1303.488 2576.205 1293.488 2740.205 C 1275.488 3026.205 1522.652 3245.395 1702.149 3064.805 C 1842.557 2923.542 1814.467 2788.31 1827.818 2820.853 C 1881.976 2952.861 1819.715 3080.142 1795.066 3130.195 C 1733.523 3255.165 1585.224 3327.924 1479.673 3302.077 C 1250.014 3245.839 1121.611 3002.141 1156.027 2734.723 C 1191.192 2461.49 1456.589 2192.852 1598.756 2042.447 C 1650.821 1987.365 1864.683 1752.394 1916.65 1635.779 C 1968.267 1519.948 1956 1410 1983 1410 C 2007 1410 2597.574 1911.89 2879.398 2285.335 C 3068.118 2535.408 3288.452 2856.852 3358.335 3307.714 C 3465.058 3996.252 2961.663 4304.959 2590 4325 Z" style="paint-order: fill;"></path>     </g>     <path d="M 2294.974 3172.72 C 2258.708 3164.798 2432.425 3075.656 2505.742 3070.825 C 2589.099 3065.333 2675.264 3089.162 2679.286 3133.967 C 2683.801 3184.273 2602.231 3193.614 2563.443 3198.576 C 2543.625 3201.111 2416.738 3199.319 2294.974 3172.72 Z M 2568.143 3274.99 C 2596.143 3268.99 2692.441 3233.97 2833.886 3128.157 C 2843.886 3113.157 2584.755 2979.685 2492.386 2992.839 C 2391.421 3007.217 2171.118 3191.697 2197.476 3193.208 C 2229.975 3195.071 2493.143 3290.99 2568.143 3274.99 Z"></path>     <path d="M 1987.828 3132.974 C 1996.377 3095.733 1972.455 2884.734 1967.95 2823.927 C 1964.481 2777.108 1988.342 2614.042 2004.999 2568.936 C 2028.42 2505.514 2066.946 2355.028 2075.946 2342.028 C 2089.946 2323.028 2301.568 2650.568 2291.311 2737.63 C 2271.767 2903.523 1971.057 3206.028 1987.828 3132.974 Z M 2040.003 3045.898 C 2091.004 3002.495 2182.205 2852.824 2197.41 2745.771 C 2213.999 2628.974 2122.802 2529.67 2117.079 2529.235 C 2112.618 2528.896 2057.297 2621.128 2032.295 2734.402 C 2008.709 2841.261 2037.209 3048.276 2040.003 3045.898 Z"></path>   </g> </svg>